<svg width="49" height="48" viewBox="0 0 49 48" fill="none" xmlns="http://www.w3.org/2000/svg">
<rect x="0.5" width="48" height="48" rx="24" fill="#FFC15E"/>
<path d="M24.5 26.5C27.8137 26.5 30.5 23.8137 30.5 20.5C30.5 17.1863 27.8137 14.5 24.5 14.5C21.1863 14.5 18.5 17.1863 18.5 20.5C18.5 23.8137 21.1863 26.5 24.5 26.5Z" stroke="#101010" stroke-width="1.5" stroke-linecap="round" stroke-linejoin="round"/>
<path d="M28.5 33.5C31.8137 33.5 34.5 30.8137 34.5 27.5C34.5 24.1863 31.8137 21.5 28.5 21.5C25.1863 21.5 22.5 24.1863 22.5 27.5C22.5 30.8137 25.1863 33.5 28.5 33.5Z" stroke="#101010" stroke-width="1.5" stroke-linecap="round" stroke-linejoin="round"/>
<path d="M20.5 33.5C23.8137 33.5 26.5 30.8137 26.5 27.5C26.5 24.1863 23.8137 21.5 20.5 21.5C17.1863 21.5 14.5 24.1863 14.5 27.5C14.5 30.8137 17.1863 33.5 20.5 33.5Z" stroke="#101010" stroke-width="1.5" stroke-linecap="round" stroke-linejoin="round"/>
</svg>
