<svg width="49" height="48" viewBox="0 0 49 48" fill="none" xmlns="http://www.w3.org/2000/svg">
<rect x="0.5" width="48" height="48" rx="24" fill="#FFC15E"/>
<path d="M24.5 34C18.9771 34 14.5 29.5228 14.5 24M24.5 34C30.0228 34 34.5 29.5228 34.5 24M24.5 34V28M14.5 24C14.5 18.4771 18.9771 14 24.5 14M14.5 24H20.5M24.5 14C30.0228 14 34.5 18.4771 34.5 24M24.5 14V20M34.5 24H28.5M24.5 28C22.2909 28 20.5 26.2091 20.5 24M24.5 28C26.7091 28 28.5 26.2091 28.5 24M20.5 24C20.5 21.7909 22.2909 20 24.5 20M24.5 20C26.7091 20 28.5 21.7909 28.5 24M17.429 16.9287L21.6716 21.1713M27.3284 26.8286L31.571 31.0713M17.429 31.0713L21.6716 26.8286M27.3284 21.1714L31.571 16.9288" stroke="#101010" stroke-width="1.5" stroke-linecap="round" stroke-linejoin="round"/>
</svg>
